<svg xmlns="http://www.w3.org/2000/svg" version="1.1" xmlns:xlink="http://www.w3.org/1999/xlink" width="1000" height="1000"><g clip-path="url(#SvgjsClipPath1075)"><rect width="1000" height="1000" fill="#ffffff"></rect><g transform="matrix(3.5,0,0,3.5,150,150)"><svg xmlns="http://www.w3.org/2000/svg" version="1.1" xmlns:xlink="http://www.w3.org/1999/xlink" width="200" height="200"><svg xmlns="http://www.w3.org/2000/svg" version="1.1" xmlns:xlink="http://www.w3.org/1999/xlink" viewBox="0 0 200 200"><rect width="200" height="200" fill="url('#gradient')"></rect><defs><linearGradient id="gradient" gradientTransform="rotate(45 0.5 0.5)"><stop offset="0%" stop-color="#3c4845"></stop><stop offset="100%" stop-color="#1b7974"></stop></linearGradient><clipPath id="SvgjsClipPath1075"><rect width="1000" height="1000" x="0" y="0" rx="400" ry="400"></rect></clipPath></defs><g><g fill="#ffffff" transform="matrix(9.591184573002755,0,0,9.591184573002755,2.456749703010587,168.19269846109648)" stroke="#c2d02d" stroke-width="0"><path d="M4.73-14.22L4.73 0L1.31 0L1.31-14.22L4.73-14.22ZM14.97 0L11.94-5.29L10.54-3.75L10.54 0L7.11 0L7.11-14.22L10.54-14.22L10.54-7.95L11.73-9.76L14.79-14.22L19.03-14.22L14.23-7.93L19.03 0L14.97 0Z"></path></g></g></svg></svg></g></g></svg>